<?xml version="1.0" encoding="iso-8859-1"?>
<!-- Uploaded to: SVG Repo, www.svgrepo.com, Generator: SVG Repo Mixer Tools -->
<svg version="1.1" id="Layer_1" xmlns="http://www.w3.org/2000/svg" xmlns:xlink="http://www.w3.org/1999/xlink" 
	 viewBox="0 0 512.001 512.001" xml:space="preserve">
<rect x="99.836" y="108.425" style="fill:#CFDCE5;" width="312.555" height="394.686"/>
<rect x="139.829" y="152.684" style="fill:#FCD577;" width="49.619" height="68.439"/>
<rect x="322.777" y="152.684" style="fill:#415E72;" width="49.619" height="68.439"/>
<rect x="231.303" y="152.684" style="fill:#FCD577;" width="49.619" height="68.439"/>
<rect x="139.829" y="267.44" style="fill:#415E72;" width="49.619" height="68.439"/>
<rect x="322.777" y="267.44" style="fill:#FCD577;" width="49.619" height="68.439"/>
<rect x="231.303" y="267.44" style="fill:#415E72;" width="49.619" height="68.439"/>
<rect x="139.829" y="382.207" style="fill:#FCD577;" width="49.619" height="68.439"/>
<g>
	<rect x="322.777" y="382.207" style="fill:#415E72;" width="49.619" height="68.439"/>
	<rect x="231.303" y="382.207" style="fill:#415E72;" width="49.619" height="120.915"/>
</g>
<path d="M200.106,117.314h203.617v306.281c0,4.725,3.831,8.555,8.555,8.555s8.555-3.831,8.555-8.555V108.759
	c0-4.725-3.831-8.555-8.555-8.555H200.106c-4.725,0-8.555,3.831-8.555,8.555C191.55,113.484,195.381,117.314,200.106,117.314z"/>
<path d="M131.163,153.012v68.439c0,4.725,3.831,8.555,8.555,8.555h49.619c4.725,0,8.555-3.831,8.555-8.555v-68.439
	c0-4.725-3.831-8.555-8.555-8.555h-49.619C134.994,144.456,131.163,148.287,131.163,153.012z M148.274,161.567h32.508v51.329
	h-32.508V161.567z"/>
<path d="M380.839,153.012c0-4.725-3.831-8.555-8.555-8.555h-49.619c-4.725,0-8.555,3.831-8.555,8.555v68.439
	c0,4.725,3.831,8.555,8.555,8.555h49.619c4.725,0,8.555-3.831,8.555-8.555V153.012z M363.728,212.895H331.22v-51.329h32.508V212.895
	z"/>
<path d="M289.365,153.012c0-4.725-3.831-8.555-8.555-8.555h-49.619c-4.725,0-8.555,3.831-8.555,8.555v68.439
	c0,4.725,3.831,8.555,8.555,8.555h49.619c4.725,0,8.555-3.831,8.555-8.555V153.012z M272.255,212.895h-32.508v-51.329h32.508
	V212.895z"/>
<path d="M189.336,289.561c4.725,0,8.555-3.831,8.555-8.555v-13.233c0-4.725-3.831-8.555-8.555-8.555h-49.619
	c-4.725,0-8.555,3.831-8.555,8.555v68.439c0,4.725,3.831,8.555,8.555,8.555h49.619c4.725,0,8.555-3.831,8.555-8.555v-26.688
	c0-4.725-3.831-8.555-8.555-8.555s-8.555,3.831-8.555,8.555v18.133h-32.508v-51.329h32.508v4.678
	C180.781,285.731,184.611,289.561,189.336,289.561z"/>
<path d="M380.839,267.773c0-4.725-3.831-8.555-8.555-8.555h-49.619c-4.725,0-8.555,3.831-8.555,8.555v68.439
	c0,4.725,3.831,8.555,8.555,8.555h49.619c4.725,0,8.555-3.831,8.555-8.555V267.773z M363.728,327.657H331.22v-51.329h32.508V327.657
	z"/>
<path d="M280.81,259.217h-49.619c-4.725,0-8.555,3.831-8.555,8.555v68.439c0,4.725,3.831,8.555,8.555,8.555h49.619
	c4.725,0,8.555-3.831,8.555-8.555v-68.439C289.365,263.048,285.536,259.217,280.81,259.217z M272.255,327.657h-32.508v-51.329
	h32.508V327.657z"/>
<path d="M189.336,373.977h-49.619c-4.725,0-8.555,3.831-8.555,8.555v68.439c0,4.725,3.831,8.555,8.555,8.555h49.619
	c4.725,0,8.555-3.831,8.555-8.555v-68.439C197.892,377.808,194.062,373.977,189.336,373.977z M180.781,442.417h-32.508v-51.329
	h32.508V442.417z"/>
<path d="M372.283,373.977h-49.619c-4.725,0-8.555,3.831-8.555,8.555v68.439c0,4.725,3.831,8.555,8.555,8.555h49.619
	c4.725,0,8.555-3.831,8.555-8.555v-68.439C380.839,377.808,377.008,373.977,372.283,373.977z M363.728,442.417H331.22v-51.329
	h32.508V442.417z"/>
<path d="M435.092,494.889h-14.259v-42.777c0-4.725-3.831-8.555-8.555-8.555s-8.555,3.831-8.555,8.555v42.777H289.365V382.533
	c0-4.725-3.831-8.555-8.555-8.555h-49.619c-4.725,0-8.555,3.831-8.555,8.555v112.357H108.279V117.314h63.309
	c4.725,0,8.555-3.831,8.555-8.555s-3.831-8.555-8.555-8.555h-17.681V72.307h14.346c4.725,0,8.555-3.831,8.555-8.555
	s-3.831-8.555-8.555-8.555h-14.346V42.948h5.537c4.725,0,8.555-3.831,8.555-8.555s-3.831-8.555-8.555-8.555h-5.537V8.555
	c0-4.725-3.831-8.555-8.555-8.555s-8.555,3.831-8.555,8.555v17.282h-5.537c-4.725,0-8.555,3.831-8.555,8.555
	s3.831,8.555,8.555,8.555h5.537v12.25h-14.346c-4.725,0-8.555,3.831-8.555,8.555s3.831,8.555,8.555,8.555h14.346v27.896H99.723
	c-4.725,0-8.555,3.831-8.555,8.555v386.131H76.909c-4.725,0-8.555,3.831-8.555,8.555s3.831,8.555,8.555,8.555h358.183
	c4.725,0,8.555-3.831,8.555-8.555S439.817,494.889,435.092,494.889z M239.747,494.889V391.088h32.508v103.801H239.747z"/>
</svg>